<?xml version="1.0" standalone="no"?>
<!DOCTYPE svg PUBLIC "-//W3C//DTD SVG 20010904//EN"
 "http://www.w3.org/TR/2001/REC-SVG-20010904/DTD/svg10.dtd">
<svg version="1.0" xmlns="http://www.w3.org/2000/svg"
 width="1960.000000pt" height="1960.000000pt" viewBox="0 0 1960.000000 1960.000000"
 preserveAspectRatio="xMidYMid meet">

<g transform="translate(0.000000,1960.000000) scale(0.100000,-0.100000)"
fill="#000000" stroke="none">
<path d="M9644 17094 c-390 -244 -715 -627 -978 -1152 -290 -579 -463 -1238
-536 -2042 -18 -195 -24 -825 -11 -1055 67 -1143 366 -2305 857 -3333 191
-398 335 -725 451 -1021 514 -1312 822 -2706 852 -3850 22 -881 -93 -1532
-369 -2081 -28 -55 -47 -100 -44 -100 4 0 34 17 68 37 315 189 606 496 852
900 79 129 224 423 289 582 332 823 470 1863 390 2938 -82 1093 -382 2213
-860 3208 -153 319 -261 560 -372 834 -410 1008 -700 2079 -837 3086 -21 155
-35 289 -61 580 -15 170 -23 608 -15 800 30 660 134 1130 350 1583 38 78 67
142 66 142 -2 0 -43 -25 -92 -56z"/>
<path d="M12455 16482 c-94 -62 -244 -215 -328 -332 -37 -52 -103 -167 -147
-255 -144 -290 -223 -574 -272 -975 -20 -163 -17 -709 5 -885 69 -546 198
-1002 422 -1485 202 -435 270 -603 375 -920 370 -1111 421 -2152 133 -2724
-19 -37 -33 -70 -31 -71 6 -6 150 94 197 137 326 297 547 804 628 1442 21 166
24 685 5 856 -68 601 -204 1071 -473 1641 -333 705 -546 1442 -626 2159 -24
216 -24 639 0 809 32 228 78 395 157 565 21 47 36 86 32 85 -4 0 -38 -21 -77
-47z"/>
<path d="M6909 10725 c-346 -234 -609 -719 -718 -1325 -42 -237 -53 -403 -48
-730 7 -400 41 -660 137 -1035 87 -342 174 -573 390 -1035 254 -545 461 -1220
549 -1795 69 -448 76 -838 21 -1172 -34 -205 -59 -282 -177 -551 -16 -37 135
76 237 178 663 656 801 2093 326 3399 -57 155 -109 276 -253 591 -311 676
-506 1372 -585 2085 -20 185 -17 661 5 805 35 224 92 420 163 562 19 37 31 68
27 68 -5 0 -38 -21 -74 -45z"/>
</g>
</svg>
